# xmcd
#
# Track frame offsets:
#	150
#	1822
#	12253
#	14270
#	22391
#	26061
#	36660
#	39475
#	50488
#	53064
#	63264
#	75039
#	81416
#	93116
#	96057
#	113596
#	115462
#	129337
#	133603
#	136528
#	139775
#
# Disc length: 2019 seconds
#
# Revision: 0
# Processed by: cddbd v1.5.2PL0 Copyright (c) Steve Scherf et al.
# Submitted via: audiograbber 1.83.01
#
DISCID=0707e115
DTITLE=Johnny Cash - America
DYEAR=1972
DGENRE=Country
TTITLE0=Opening Dialogue
TTITLE1=Paul Revere
TTITLE2=Begin West Movement (Dialogue) 
TTITLE3=The Road To Kaintuck
TTITLE4=To The Shining Mountains (Dialogue) 
TTITLE5=The Battle Of New Orleans
TTITLE6=Southwestward (Dialogue)
TTITLE7=Remember The Alamo
TTITLE8=Opening The West (Dialogue) 
TTITLE9=Lorena
TTITLE10=The Gettysburg Address
TTITLE11=The West (Dialogue)
TTITLE12=Big Foot 
TTITLE13=Like A Young Colt (Dialogue)
TTITLE14=Mister Garfield 
TTITLE15=A Proud Land (Dialogue) 
TTITLE16=The Big Battle
TTITLE17=On Wheels And Wings (Dialogue) 
TTITLE18=Come Take A Trip In My Airship
TTITLE19=Reaching For The Stars (Dialogue)
TTITLE20=These Are My People
EXTD=
EXTT0=
EXTT1=
EXTT2=
EXTT3=
EXTT4=
EXTT5=
EXTT6=
EXTT7=
EXTT8=
EXTT9=
EXTT10=
EXTT11=
EXTT12=
EXTT13=
EXTT14=
EXTT15=
EXTT16=
EXTT17=
EXTT18=
EXTT19=
EXTT20=
PLAYORDER=
